<?xml version="1.0" encoding="UTF-8" standalone="no"?>
<!-- Created with Inkscape (http://www.inkscape.org/) -->

<svg
   xmlns:dc="http://purl.org/dc/elements/1.1/"
   xmlns:cc="http://creativecommons.org/ns#"
   xmlns:rdf="http://www.w3.org/1999/02/22-rdf-syntax-ns#"
   xmlns:svg="http://www.w3.org/2000/svg"
   xmlns="http://www.w3.org/2000/svg"
   xmlns:sodipodi="http://sodipodi.sourceforge.net/DTD/sodipodi-0.dtd"
   xmlns:inkscape="http://www.inkscape.org/namespaces/inkscape"
   width="210mm"
   height="297mm"
   viewBox="0 0 210 297"
   version="1.1"
   id="svg8"
   sodipodi:docname="logo.svg"
   inkscape:version="0.92.3 (2405546, 2018-03-11)">
  <defs
     id="defs2" />
  <sodipodi:namedview
     id="base"
     pagecolor="#ffffff"
     bordercolor="#666666"
     borderopacity="1.0"
     inkscape:pageopacity="0.0"
     inkscape:pageshadow="2"
     inkscape:zoom="0.80808375"
     inkscape:cx="301.94774"
     inkscape:cy="426.3921"
     inkscape:document-units="mm"
     inkscape:current-layer="layer2"
     showgrid="false"
     inkscape:window-width="1920"
     inkscape:window-height="1043"
     inkscape:window-x="0"
     inkscape:window-y="0"
     inkscape:window-maximized="1" />
  <metadata
     id="metadata5">
    <rdf:RDF>
      <cc:Work
         rdf:about="">
        <dc:format>image/svg+xml</dc:format>
        <dc:type
           rdf:resource="http://purl.org/dc/dcmitype/StillImage" />
        <dc:title></dc:title>
      </cc:Work>
    </rdf:RDF>
  </metadata>
  <g
     inkscape:groupmode="layer"
     id="layer2"
     inkscape:label="Layer 2"
     style="display:inline">
    <path
       d="m 155.30878,86.19395 c -3.83248,0 -7.25776,-0.83835 -10.27584,-2.51506 -3.01806,-1.72462 -5.36546,-4.09596 -7.04218,-7.11403 -1.67671,-3.01807 -2.51506,-6.44335 -2.51506,-10.27583 0,-3.88038 0.83835,-7.32961 2.51506,-10.34767 1.67672,-3.01806 4.02412,-5.36546 7.04218,-7.04217 3.01808,-1.72462 6.44336,-2.58693 10.27584,-2.58693 3.78456,0 7.16194,0.86231 10.1321,2.58693 3.01808,1.67671 5.36547,4.02411 7.04217,7.04217 1.72462,3.01806 2.58694,6.46729 2.58694,10.34767 0,3.83248 -0.83837,7.25776 -2.51508,10.27583 -1.67671,3.01807 -4.0241,5.38941 -7.04218,7.11403 -2.97016,1.67671 -6.37148,2.51506 -10.20395,2.51506 z"
       style="font-style:normal;font-variant:normal;font-weight:bold;font-stretch:normal;font-size:50.55459976px;line-height:1.25;font-family:Comfortaa;-inkscape-font-specification:'Comfortaa, Bold';font-variant-ligatures:normal;font-variant-caps:normal;font-variant-numeric:normal;font-feature-settings:normal;text-align:start;letter-spacing:0px;word-spacing:0px;writing-mode:lr-tb;text-anchor:start;fill:#7eae0e;fill-opacity:1;stroke:none;stroke-width:1.79647315;stroke-opacity:1"
       id="path851-1-0"
       inkscape:connector-curvature="0"
       sodipodi:nodetypes="scssscsccsccs" />
    <path
       d="m 124.6773,86.74159 c -3.83248,0 -7.25776,-0.83835 -10.27584,-2.51506 -3.01806,-1.72462 -5.36546,-4.09596 -7.04218,-7.11403 -1.6767,-3.01807 -2.51505,-6.44335 -2.51505,-10.27583 0,-3.88038 0.83835,-7.32961 2.51505,-10.34767 1.67672,-3.01807 4.02412,-5.36546 7.04218,-7.04217 3.01808,-1.72462 6.44336,-2.58693 10.27584,-2.58693 3.78456,0 7.16194,0.86231 10.1321,2.58693 3.01808,1.67671 5.36547,4.0241 7.04218,7.04217 1.72462,3.01806 2.58694,6.46729 2.58694,10.34767 0,3.83248 -0.83837,7.25776 -2.51508,10.27583 -1.67672,3.01807 -4.02411,5.38941 -7.04219,7.11403 -2.97016,1.67671 -6.37148,2.51506 -10.20395,2.51506 z"
       style="font-style:normal;font-variant:normal;font-weight:bold;font-stretch:normal;font-size:50.55459976px;line-height:1.25;font-family:Comfortaa;-inkscape-font-specification:'Comfortaa, Bold';font-variant-ligatures:normal;font-variant-caps:normal;font-variant-numeric:normal;font-feature-settings:normal;text-align:start;letter-spacing:0px;word-spacing:0px;writing-mode:lr-tb;text-anchor:start;fill:#7eae0e;fill-opacity:1;stroke:none;stroke-width:1.79647315;stroke-opacity:1"
       id="path851-1-5-3"
       inkscape:connector-curvature="0"
       sodipodi:nodetypes="scssscsccsccs" />
    <path
       inkscape:connector-curvature="0"
       style="font-style:normal;font-variant:normal;font-weight:bold;font-stretch:normal;font-size:50.55459976px;line-height:1.25;font-family:Comfortaa;-inkscape-font-specification:'Comfortaa, Bold';font-variant-ligatures:normal;font-variant-caps:normal;font-variant-numeric:normal;font-feature-settings:normal;text-align:start;letter-spacing:0px;word-spacing:0px;writing-mode:lr-tb;text-anchor:start;fill:#7eae0e;fill-opacity:1;stroke:none;stroke-width:1.79647315;stroke-opacity:1"
       d="m 80.971776,35.02389 c -1.92181,0 -3.53795,0.54809 -4.84828,1.64487 -1.22299,1.09674 -1.83451,2.54624 -1.83451,4.34805 v 18.66604 c -0.62132,2.04259 -0.9338,4.24419 -0.9338,6.60632 0,3.83248 0.83838,7.25779 2.51509,10.27585 1.67672,3.01808 4.02389,5.38917 7.04195,7.11378 3.01808,1.67672 6.44338,2.51509 10.27586,2.51509 3.83247,0 7.233874,-0.83837 10.204034,-2.51509 3.01808,-1.72461 5.36524,-4.0957 7.04196,-7.11378 1.67671,-3.01806 2.51509,-6.44337 2.51509,-10.27585 0,-3.88038 -0.8623,-7.32963 -2.58692,-10.34769 -1.67671,-3.01806 -4.02388,-5.36575 -7.04196,-7.04246 -2.97016,-1.72462 -6.347644,-2.58693 -10.132204,-2.58693 -1.95038,0 -3.79456,0.22462 -5.53403,0.67128 v -5.96656 c 0,-1.80181 -0.61155,-3.25131 -1.83451,-4.34805 -1.223,-1.09678 -2.8386,-1.64487 -4.84777,-1.64487 z"
       id="path851-1-5-5-0" />
    <path
       d="m 59.819182,87.28923 c -3.83248,0 -7.25776,-0.83835 -10.27583,-2.51507 -3.01806,-1.72461 -5.36545,-4.09595 -7.04217,-7.11403 -1.67671,-3.01806 -2.51506,-6.44334 -2.51506,-10.27582 0,-3.88038 0.83835,-7.32961 2.51506,-10.34768 1.67672,-3.01806 4.02411,-5.36546 7.04217,-7.04217 3.01807,-1.72461 6.44335,-2.58693 10.27583,-2.58693 3.78456,0 7.16194,0.86232 10.1321,2.58693 3.01808,1.67671 5.36547,4.02411 7.04217,7.04217 1.72462,3.01807 2.58694,6.4673 2.58694,10.34768 0,3.83248 -0.83837,7.25776 -2.51508,10.27582 -1.67671,3.01808 -4.02409,5.38942 -7.04218,7.11403 -2.97016,1.67672 -6.37148,2.51507 -10.20395,2.51507 z"
       style="font-style:normal;font-variant:normal;font-weight:bold;font-stretch:normal;font-size:50.55459976px;line-height:1.25;font-family:Comfortaa;-inkscape-font-specification:'Comfortaa, Bold';font-variant-ligatures:normal;font-variant-caps:normal;font-variant-numeric:normal;font-feature-settings:normal;text-align:start;letter-spacing:0px;word-spacing:0px;writing-mode:lr-tb;text-anchor:start;fill:#7eae0e;fill-opacity:1;stroke:none;stroke-width:1.79647315;stroke-opacity:1"
       id="path851-1-5-5-4-9"
       inkscape:connector-curvature="0"
       sodipodi:nodetypes="scssscsccsccs" />
    <text
       xml:space="preserve"
       style="font-style:normal;font-variant:normal;font-weight:normal;font-stretch:normal;font-size:10.58333302px;line-height:1.25;font-family:Comfortaa;-inkscape-font-specification:'Comfortaa, Normal';font-variant-ligatures:normal;font-variant-caps:normal;font-variant-numeric:normal;font-feature-settings:normal;text-align:start;letter-spacing:0px;word-spacing:0px;writing-mode:lr-tb;text-anchor:start;fill:#000000;fill-opacity:1;stroke:none;stroke-width:0.26458332"
       x="101.56649"
       y="282.93735"
       id="text1062"><tspan
         sodipodi:role="line"
         id="tspan1060"
         x="101.56649"
         y="282.93735"
         style="font-style:normal;font-variant:normal;font-weight:normal;font-stretch:normal;font-size:5.64444447px;font-family:Comfortaa;-inkscape-font-specification:'Comfortaa, Normal';font-variant-ligatures:normal;font-variant-caps:normal;font-variant-numeric:normal;font-feature-settings:normal;text-align:start;writing-mode:lr-tb;text-anchor:start;stroke-width:0.26458332">#7eae0e</tspan></text>
    <path
       style="font-style:normal;font-variant:normal;font-weight:bold;font-stretch:normal;font-size:50.55459976px;line-height:1.25;font-family:Comfortaa;-inkscape-font-specification:'Comfortaa, Bold';font-variant-ligatures:normal;font-variant-caps:normal;font-variant-numeric:normal;font-feature-settings:normal;text-align:start;letter-spacing:0px;word-spacing:0px;writing-mode:lr-tb;text-anchor:start;display:inline;fill:#999999;fill-opacity:1;stroke:none;stroke-width:0.89823657;stroke-opacity:0"
       d="m 89.561804,118.8178 c -0.960906,0 -1.768976,0.27404 -2.424142,0.82243 -0.611495,0.54837 -0.917257,1.27312 -0.917257,2.17403 v 6.16034 c -0.623475,-0.65663 -1.345927,-1.21429 -2.16886,-1.67147 -1.485079,-0.8623 -3.173818,-1.29346 -5.066098,-1.29346 -1.91624,0 -3.628894,0.43116 -5.13793,1.29346 -1.509029,0.83836 -2.682615,2.01194 -3.520974,3.52097 -0.838355,1.50904 -1.257545,3.23366 -1.257545,5.17385 0,1.91624 0.41919,3.62889 1.257545,5.13793 0.838359,1.50903 2.011945,2.69458 3.520974,3.55689 1.509036,0.83836 3.22169,1.25754 5.13793,1.25754 1.916235,0 3.616933,-0.41918 5.102014,-1.25754 1.436047,-0.8206 2.567759,-1.93462 3.396433,-3.34089 0.788283,1.15077 1.803806,2.08232 3.048134,2.79337 1.509041,0.83836 3.22169,1.25755 5.13793,1.25755 1.916235,0 3.616934,-0.41919 5.102012,-1.25755 1.04267,-0.5958 1.92495,-1.34625 2.64739,-2.25076 0.75922,1.02787 1.71118,1.86977 2.85719,2.52465 1.50904,0.83835 3.22169,1.25755 5.13793,1.25755 1.91624,0 3.61694,-0.4192 5.10202,-1.25755 1.04464,-0.59694 1.92828,-1.34908 2.65152,-2.25594 0.6787,0.78548 1.48677,1.44626 2.4244,1.98205 1.50904,0.83835 3.22169,1.25755 5.13793,1.25755 1.91623,0 3.61693,-0.4192 5.10201,-1.25755 1.50904,-0.86231 2.68262,-2.04785 3.52097,-3.55689 0.83836,-1.50903 1.25755,-3.22168 1.25755,-5.13792 0,-1.94019 -0.43115,-3.66482 -1.29346,-5.17385 -0.83835,-1.50903 -2.01193,-2.68288 -3.52098,-3.52123 -1.48507,-0.86231 -3.17381,-1.29346 -5.06609,-1.29346 -1.91624,0 -3.62889,0.43115 -5.13793,1.29346 -1.05324,0.58513 -1.94282,1.33426 -2.66935,2.24612 -0.68242,-0.78911 -1.49651,-1.44669 -2.44249,-1.97224 -1.48508,-0.86231 -3.17381,-1.29346 -5.0661,-1.29346 -1.91624,0 -3.62889,0.43115 -5.13793,1.29346 -1.05152,0.58419 -1.93959,1.33163 -2.66547,2.24147 -0.76209,-1.0347 -1.71994,-1.87364 -2.87502,-2.51535 -1.485083,-0.86231 -3.173822,-1.29346 -5.066102,-1.29346 -0.97519,0 -1.89728,0.11231 -2.767014,0.33564 v -2.98328 c 0,-0.90091 -0.305778,-1.62566 -0.917258,-2.17403 -0.611499,-0.54839 -1.419297,-0.82243 -2.423882,-0.82243 z"
       id="path851-1-0-0"
       inkscape:connector-curvature="0" />
    <g
       aria-label="ebso"
       style="font-style:normal;font-variant:normal;font-weight:normal;font-stretch:normal;font-size:50.55459976px;line-height:1.25;font-family:'Latin Modern Math';-inkscape-font-specification:'Latin Modern Math';letter-spacing:0px;word-spacing:0px;display:inline;fill:#ffffff;fill-opacity:1;stroke:none;stroke-width:1.26386499"
       id="text823-2-0"
       transform="matrix(0.5,0,0,0.5,47.669529,67.858597)">
      <path
         d="m 75.214469,133.13188 q 0,0.96054 -0.657209,1.61775 -0.65721,0.60665 -1.668302,0.60665 H 53.67821 q 0.556101,3.53882 3.18494,5.71267 2.679394,2.17385 6.521543,2.17385 1.516638,0 3.134385,-0.5561 1.668302,-0.5561 2.729949,-1.36498 0.707764,-0.5561 1.668301,-0.5561 0.960538,0 1.516638,0.50555 0.909983,0.75832 0.909983,1.71885 0,0.90999 -0.808873,1.51664 -1.718857,1.36498 -4.297141,2.22441 -2.52773,0.85942 -4.853242,0.85942 -4.145477,0 -7.431526,-1.76941 -3.286049,-1.81996 -5.156569,-5.0049 -1.819966,-3.18494 -1.819966,-7.22931 0,-4.04437 1.718857,-7.22931 1.769411,-3.23549 4.853241,-5.0049 3.134385,-1.81997 7.077644,-1.81997 3.892704,0 6.723762,1.71886 2.831057,1.71885 4.347695,4.80268 1.516638,3.08383 1.516638,7.07765 z m -12.588095,-9.25149 q -3.690486,0 -6.015997,2.02218 -2.274957,2.02218 -2.881612,5.40934 h 16.834681 q -0.454991,-3.38716 -2.52773,-5.40934 -2.072738,-2.02218 -5.409342,-2.02218 z"
         style="font-style:normal;font-variant:normal;font-weight:bold;font-stretch:normal;font-size:50.55459976px;font-family:Comfortaa;-inkscape-font-specification:'Comfortaa, Bold';font-variant-ligatures:normal;font-variant-caps:normal;font-variant-numeric:normal;font-feature-settings:normal;text-align:start;writing-mode:lr-tb;text-anchor:start;fill:#ffffff;fill-opacity:1;stroke-width:1.26386499"
         id="path1324"
         inkscape:connector-curvature="0" />
      <path
         d="m 96.704913,119.53269 q 3.639927,0 6.572097,1.81997 2.98272,1.81996 4.65102,5.05546 1.71886,3.18494 1.71886,7.12819 0,3.94326 -1.81997,7.17876 -1.81996,3.18494 -5.05545,5.05546 -3.184945,1.81996 -7.077649,1.81996 -3.892704,0 -7.077644,-1.81996 -3.134385,-1.87052 -5.004905,-5.05546 -1.819966,-3.2355 -1.819966,-7.17876 v -23.05289 q 0,-1.16276 0.707765,-1.87052 0.758319,-0.70777 1.87052,-0.70777 1.162755,0 1.87052,0.70777 0.707764,0.70776 0.707764,1.87052 v 13.64974 q 1.769411,-2.17385 4.297141,-3.38716 2.52773,-1.21331 5.459897,-1.21331 z m -1.011092,23.50789 q 2.52773,0 4.549919,-1.21331 2.07273,-1.26387 3.23549,-3.43771 1.21331,-2.17385 1.21331,-4.85325 0,-2.67939 -1.21331,-4.80268 -1.16276,-2.17385 -3.23549,-3.38716 -2.022189,-1.26387 -4.549919,-1.26387 -2.52773,0 -4.600469,1.26387 -2.022184,1.21331 -3.184939,3.38716 -1.162756,2.12329 -1.162756,4.80268 0,2.6794 1.162756,4.85325 1.162755,2.17384 3.184939,3.43771 2.072739,1.21331 4.600469,1.21331 z"
         style="font-style:normal;font-variant:normal;font-weight:bold;font-stretch:normal;font-size:50.55459976px;font-family:Comfortaa;-inkscape-font-specification:'Comfortaa, Bold';font-variant-ligatures:normal;font-variant-caps:normal;font-variant-numeric:normal;font-feature-settings:normal;text-align:start;writing-mode:lr-tb;text-anchor:start;fill:#ffffff;fill-opacity:1;stroke-width:1.26386499"
         id="path1326"
         inkscape:connector-curvature="0" />
      <path
         d="m 127.39788,147.59049 q -3.43772,0 -6.47099,-1.06164 -3.03328,-1.06165 -4.75213,-2.78051 -0.65721,-0.65721 -0.65721,-1.56719 0,-1.21331 1.01109,-1.97163 0.96054,-0.70776 1.76941,-0.70776 1.01109,0 1.92107,0.90998 0.96054,1.06165 2.88162,1.87052 1.92107,0.75832 4.09492,0.75832 2.88161,0 4.4488,-0.96054 1.61775,-0.96054 1.61775,-2.57828 0,-1.5672 -1.56719,-2.57829 -1.56719,-1.06164 -5.30824,-1.76941 -9.70648,-1.87052 -9.70648,-7.98762 0,-2.47718 1.46609,-4.19604 1.46608,-1.71885 3.84214,-2.57828 2.37607,-0.85943 5.05546,-0.85943 3.28605,0 5.86434,1.06165 2.62884,1.06164 4.14548,2.93216 0.65721,0.80888 0.65721,1.61775 0,0.85943 -0.85943,1.56719 -0.5561,0.40444 -1.41553,0.40444 -1.31442,0 -2.37607,-0.96054 -1.26386,-1.16275 -2.67939,-1.61774 -1.41553,-0.50555 -3.43771,-0.50555 -2.32552,0 -3.84215,0.80887 -1.46609,0.75832 -1.46609,2.17385 0,1.01109 0.50555,1.71886 0.50554,0.65721 1.92107,1.26386 1.41553,0.5561 4.09493,1.1122 5.51045,1.11221 7.7854,3.08383 2.32552,1.97163 2.32552,5.10602 0,2.32551 -1.26387,4.24659 -1.26386,1.87052 -3.74104,2.98272 -2.42662,1.06164 -5.86433,1.06164 z"
         style="font-style:normal;font-variant:normal;font-weight:bold;font-stretch:normal;font-size:50.55459976px;font-family:Comfortaa;-inkscape-font-specification:'Comfortaa, Bold';font-variant-ligatures:normal;font-variant-caps:normal;font-variant-numeric:normal;font-feature-settings:normal;text-align:start;writing-mode:lr-tb;text-anchor:start;fill:#ffffff;fill-opacity:1;stroke-width:1.26386499"
         id="path1328"
         inkscape:connector-curvature="0" />
      <path
         d="m 157.32461,147.59049 q -4.04436,0 -7.2293,-1.76941 -3.18494,-1.81996 -4.95435,-5.0049 -1.76942,-3.18494 -1.76942,-7.22931 0,-4.09492 1.76942,-7.27986 1.76941,-3.18494 4.95435,-4.95435 3.18494,-1.81997 7.2293,-1.81997 3.99382,0 7.1282,1.81997 3.18494,1.76941 4.95435,4.95435 1.81997,3.18494 1.81997,7.27986 0,4.04437 -1.76941,7.22931 -1.76941,3.18494 -4.95435,5.0049 -3.13439,1.76941 -7.17876,1.76941 z m 0,-4.54991 q 2.57829,0 4.60047,-1.21331 2.07274,-1.21331 3.18494,-3.3366 1.16276,-2.17385 1.16276,-4.9038 0,-2.72995 -1.16276,-4.9038 -1.1122,-2.17384 -3.18494,-3.38715 -2.02218,-1.21332 -4.60047,-1.21332 -2.57828,0 -4.65102,1.21332 -2.02218,1.21331 -3.18494,3.38715 -1.16275,2.17385 -1.16275,4.9038 0,2.72995 1.16275,4.9038 1.16276,2.12329 3.18494,3.3366 2.07274,1.21331 4.65102,1.21331 z"
         style="font-style:normal;font-variant:normal;font-weight:bold;font-stretch:normal;font-size:50.55459976px;font-family:Comfortaa;-inkscape-font-specification:'Comfortaa, Bold';font-variant-ligatures:normal;font-variant-caps:normal;font-variant-numeric:normal;font-feature-settings:normal;text-align:start;writing-mode:lr-tb;text-anchor:start;fill:#ffffff;fill-opacity:1;stroke-width:1.26386499"
         id="path1330"
         inkscape:connector-curvature="0" />
    </g>
    <path
       d="m 94.408283,284.67606 c -0.758324,0 -1.436071,-0.16589 -2.033258,-0.49766 -0.597177,-0.34125 -1.061654,-0.81046 -1.393421,-1.40764 -0.33177,-0.59719 -0.49765,-1.27494 -0.49765,-2.03327 0,-0.76781 0.16588,-1.45031 0.49765,-2.04749 0.331767,-0.59718 0.796244,-1.06166 1.393421,-1.39343 0.597187,-0.34125 1.274934,-0.51187 2.033258,-0.51187 0.748847,0 1.417121,0.17062 2.004818,0.51187 0.597187,0.33177 1.061654,0.79625 1.393424,1.39343 0.341247,0.59718 0.511877,1.27968 0.511877,2.04749 0,0.75833 -0.16589,1.43608 -0.497657,2.03327 -0.33177,0.59718 -0.796247,1.06639 -1.393424,1.40764 -0.587697,0.33177 -1.260711,0.49766 -2.019038,0.49766 z"
       style="font-style:normal;font-variant:normal;font-weight:bold;font-stretch:normal;font-size:50.55459976px;line-height:1.25;font-family:Comfortaa;-inkscape-font-specification:'Comfortaa, Bold';font-variant-ligatures:normal;font-variant-caps:normal;font-variant-numeric:normal;font-feature-settings:normal;text-align:start;letter-spacing:0px;word-spacing:0px;writing-mode:lr-tb;text-anchor:start;display:inline;fill:#7eae0e;fill-opacity:1;stroke:none;stroke-width:0.35546657;stroke-opacity:1"
       id="path851-1-5-3-5"
       inkscape:connector-curvature="0"
       sodipodi:nodetypes="scssscsccsccs" />
    <text
       xml:space="preserve"
       style="font-style:normal;font-variant:normal;font-weight:normal;font-stretch:normal;font-size:10.58333302px;line-height:1.25;font-family:'Latin Modern Math';-inkscape-font-specification:'Latin Modern Math';letter-spacing:0px;word-spacing:0px;fill:#000000;fill-opacity:1;stroke:none;stroke-width:0.26458332"
       x="21.903793"
       y="282.59348"
       id="text5104"><tspan
         sodipodi:role="line"
         id="tspan5102"
         x="21.903793"
         y="282.59348"
         style="font-style:normal;font-variant:normal;font-weight:normal;font-stretch:normal;font-size:5.64444447px;font-family:Comfortaa;-inkscape-font-specification:'Comfortaa, Normal';font-variant-ligatures:normal;font-variant-caps:normal;font-variant-numeric:normal;font-feature-settings:normal;text-align:start;writing-mode:lr-tb;text-anchor:start;stroke-width:0.26458332">Font: Comfortaa</tspan></text>
    <text
       xml:space="preserve"
       style="font-style:normal;font-variant:normal;font-weight:normal;font-stretch:normal;font-size:10.58333302px;line-height:1.25;font-family:Comfortaa;-inkscape-font-specification:'Comfortaa, Normal';font-variant-ligatures:normal;font-variant-caps:normal;font-variant-numeric:normal;font-feature-settings:normal;text-align:start;letter-spacing:0px;word-spacing:0px;writing-mode:lr-tb;text-anchor:start;display:inline;fill:#000000;fill-opacity:1;stroke:none;stroke-width:0.26458332"
       x="154.9415"
       y="282.40247"
       id="text1062-2"><tspan
         sodipodi:role="line"
         id="tspan1060-1"
         x="154.9415"
         y="282.40247"
         style="font-style:normal;font-variant:normal;font-weight:normal;font-stretch:normal;font-size:5.64444447px;font-family:Comfortaa;-inkscape-font-specification:'Comfortaa, Normal';font-variant-ligatures:normal;font-variant-caps:normal;font-variant-numeric:normal;font-feature-settings:normal;text-align:start;writing-mode:lr-tb;text-anchor:start;stroke-width:0.26458332">#999999ff</tspan></text>
    <path
       d="m 147.78348,284.14129 c -0.75833,0 -1.43607,-0.16589 -2.03326,-0.49766 -0.59718,-0.34125 -1.06166,-0.81046 -1.39342,-1.40764 -0.33177,-0.59719 -0.49765,-1.27494 -0.49765,-2.03327 0,-0.76781 0.16588,-1.45031 0.49765,-2.04749 0.33176,-0.59718 0.79624,-1.06166 1.39342,-1.39343 0.59719,-0.34125 1.27493,-0.51187 2.03326,-0.51187 0.74884,0 1.41712,0.17062 2.00481,0.51187 0.59719,0.33177 1.06166,0.79625 1.39343,1.39343 0.34125,0.59718 0.51188,1.27968 0.51188,2.04749 0,0.75833 -0.16589,1.43608 -0.49766,2.03327 -0.33177,0.59718 -0.79625,1.06639 -1.39343,1.40764 -0.58769,0.33177 -1.26071,0.49766 -2.01903,0.49766 z"
       style="font-style:normal;font-variant:normal;font-weight:bold;font-stretch:normal;font-size:50.55459976px;line-height:1.25;font-family:Comfortaa;-inkscape-font-specification:'Comfortaa, Bold';font-variant-ligatures:normal;font-variant-caps:normal;font-variant-numeric:normal;font-feature-settings:normal;text-align:start;letter-spacing:0px;word-spacing:0px;writing-mode:lr-tb;text-anchor:start;display:inline;fill:#999999;fill-opacity:1;stroke:none;stroke-width:0.35546657;stroke-opacity:1"
       id="path851-1-5-3-5-7"
       inkscape:connector-curvature="0"
       sodipodi:nodetypes="scssscsccsccs" />
  </g>
  <g
     inkscape:label="Layer 1"
     inkscape:groupmode="layer"
     id="layer1">
    <text
       xml:space="preserve"
       style="font-style:normal;font-variant:normal;font-weight:normal;font-stretch:normal;font-size:10.58333302px;line-height:1.25;font-family:'Latin Modern Math';-inkscape-font-specification:'Latin Modern Math';letter-spacing:0px;word-spacing:0px;fill:#000000;fill-opacity:1;stroke:none;stroke-width:0.26458332"
       x="27.3606"
       y="53.973503"
       id="text817"><tspan
         sodipodi:role="line"
         id="tspan815"
         x="27.3606"
         y="63.826588"
         style="stroke-width:0.26458332" /></text>
    <ellipse
       style="opacity:0;vector-effect:none;fill:#ff53ff;fill-opacity:0;fill-rule:evenodd;stroke:none;stroke-width:560;stroke-linecap:butt;stroke-linejoin:miter;stroke-miterlimit:4;stroke-dasharray:none;stroke-dashoffset:0;stroke-opacity:1"
       id="path819"
       cx="35.048798"
       cy="36.872196"
       rx="32.85825"
       ry="31.489155" />
    <flowRoot
       xml:space="preserve"
       id="flowRoot843"
       style="font-style:normal;font-variant:normal;font-weight:normal;font-stretch:normal;font-size:40px;line-height:1.25;font-family:'Latin Modern Math';-inkscape-font-specification:'Latin Modern Math';letter-spacing:0px;word-spacing:0px;fill:#000000;fill-opacity:1;stroke:none"
       transform="scale(0.26458333)"><flowRegion
         id="flowRegion845"><rect
           id="rect847"
           width="490.5452"
           height="71.408478"
           x="-109.69998"
           y="387.73679" /></flowRegion><flowPara
         id="flowPara849" /></flowRoot>    <text
       xml:space="preserve"
       style="font-style:normal;font-variant:normal;font-weight:normal;font-stretch:normal;font-size:50.55459976px;line-height:1.25;font-family:'Latin Modern Math';-inkscape-font-specification:'Latin Modern Math';letter-spacing:0px;word-spacing:0px;display:inline;fill:#ffffff;fill-opacity:1;stroke:none;stroke-width:1.26386499"
       x="43.029541"
       y="80.493912"
       id="text823-2"><tspan
         sodipodi:role="line"
         id="tspan821-5"
         x="43.029541"
         y="80.493912"
         style="font-style:normal;font-variant:normal;font-weight:bold;font-stretch:normal;font-size:50.55459976px;font-family:Comfortaa;-inkscape-font-specification:'Comfortaa, Bold';font-variant-ligatures:normal;font-variant-caps:normal;font-variant-numeric:normal;font-feature-settings:normal;text-align:start;writing-mode:lr-tb;text-anchor:start;fill:#ffffff;fill-opacity:1;stroke-width:1.26386499">ebso</tspan></text>
    <path
       style="font-style:normal;font-variant:normal;font-weight:bold;font-stretch:normal;font-size:50.55459976px;line-height:1.25;font-family:Comfortaa;-inkscape-font-specification:'Comfortaa, Bold';font-variant-ligatures:normal;font-variant-caps:normal;font-variant-numeric:normal;font-feature-settings:normal;text-align:start;letter-spacing:0px;word-spacing:0px;writing-mode:lr-tb;text-anchor:start;display:inline;fill:#7eae0e;fill-opacity:1;stroke:none;stroke-width:0.44911829;stroke-opacity:0"
       d="m 96.200832,174.1367 c -0.480455,0 -0.88449,0.13702 -1.21207,0.41121 -0.30575,0.27419 -0.45863,0.63656 -0.45863,1.08702 v 3.08017 c -0.31174,-0.32832 -0.672965,-0.60715 -1.08443,-0.83574 -0.74254,-0.43115 -1.58691,-0.64673 -2.53305,-0.64673 -0.95812,0 -1.814445,0.21558 -2.568965,0.64673 -0.754515,0.41918 -1.341305,1.00597 -1.760485,1.76049 -0.41918,0.75452 -0.628775,1.61683 -0.628775,2.58692 0,0.95812 0.209595,1.81445 0.628775,2.56897 0.41918,0.75451 1.00597,1.34729 1.760485,1.77844 0.75452,0.41918 1.610845,0.62877 2.568965,0.62877 0.95812,0 1.808465,-0.20959 2.55101,-0.62877 0.71802,-0.4103 1.283875,-0.96731 1.698215,-1.67044 0.39414,0.57538 0.9019,1.04116 1.524065,1.39668 0.75452,0.41918 1.610845,0.62878 2.568965,0.62878 0.958123,0 1.808473,-0.2096 2.551023,-0.62878 0.52132,-0.2979 0.96246,-0.67312 1.32368,-1.12538 0.37961,0.51394 0.85559,0.93489 1.4286,1.26233 0.75452,0.41917 1.61084,0.62877 2.56896,0.62877 0.95812,0 1.80847,-0.2096 2.55102,-0.62877 0.52232,-0.29847 0.96414,-0.67454 1.32576,-1.12797 0.33935,0.39274 0.74338,0.72313 1.2122,0.99102 0.75452,0.41918 1.61084,0.62878 2.56896,0.62878 0.95812,0 1.80847,-0.2096 2.551,-0.62878 0.75453,-0.43115 1.34132,-1.02392 1.76049,-1.77844 0.41918,-0.75452 0.62878,-1.61084 0.62878,-2.56896 0,-0.9701 -0.21558,-1.83241 -0.64673,-2.58693 -0.41918,-0.75451 -1.00597,-1.34144 -1.76049,-1.76061 -0.74254,-0.43116 -1.58691,-0.64673 -2.53305,-0.64673 -0.95812,0 -1.81444,0.21557 -2.56896,0.64673 -0.52662,0.29256 -0.97141,0.66713 -1.33468,1.12306 -0.34121,-0.39456 -0.74825,-0.72335 -1.22124,-0.98612 -0.74255,-0.43116 -1.58692,-0.64673 -2.53306,-0.64673 -0.95812,0 -1.81444,0.21557 -2.56896,0.64673 -0.52576,0.29209 -0.9698,0.66581 -1.33273,1.12073 -0.38105,-0.51735 -0.85997,-0.93682 -1.43751,-1.25767 -0.74255,-0.43116 -1.58692,-0.64673 -2.533063,-0.64673 -0.487595,0 -0.94864,0.0562 -1.383505,0.16782 v -1.49164 c 0,-0.45046 -0.15289,-0.81283 -0.45863,-1.08702 -0.30575,-0.27419 -0.70965,-0.41121 -1.21194,-0.41121 z"
       id="path851-1-0-0-9"
       inkscape:connector-curvature="0" />
    <g
       aria-label="ebso"
       style="font-style:normal;font-variant:normal;font-weight:normal;font-stretch:normal;font-size:50.55459976px;line-height:1.25;font-family:'Latin Modern Math';-inkscape-font-specification:'Latin Modern Math';letter-spacing:0px;word-spacing:0px;display:inline;fill:#ffffff;fill-opacity:1;stroke:none;stroke-width:1.26386499"
       id="text823-2-0-0"
       transform="matrix(0.25000001,0,0,0.25000001,75.254693,148.65712)">
      <path
         d="m 75.214469,133.13188 q 0,0.96054 -0.657209,1.61775 -0.65721,0.60665 -1.668302,0.60665 H 53.67821 q 0.556101,3.53882 3.18494,5.71267 2.679394,2.17385 6.521543,2.17385 1.516638,0 3.134385,-0.5561 1.668302,-0.5561 2.729949,-1.36498 0.707764,-0.5561 1.668301,-0.5561 0.960538,0 1.516638,0.50555 0.909983,0.75832 0.909983,1.71885 0,0.90999 -0.808873,1.51664 -1.718857,1.36498 -4.297141,2.22441 -2.52773,0.85942 -4.853242,0.85942 -4.145477,0 -7.431526,-1.76941 -3.286049,-1.81996 -5.156569,-5.0049 -1.819966,-3.18494 -1.819966,-7.22931 0,-4.04437 1.718857,-7.22931 1.769411,-3.23549 4.853241,-5.0049 3.134385,-1.81997 7.077644,-1.81997 3.892704,0 6.723762,1.71886 2.831057,1.71885 4.347695,4.80268 1.516638,3.08383 1.516638,7.07765 z m -12.588095,-9.25149 q -3.690486,0 -6.015997,2.02218 -2.274957,2.02218 -2.881612,5.40934 h 16.834681 q -0.454991,-3.38716 -2.52773,-5.40934 -2.072738,-2.02218 -5.409342,-2.02218 z"
         style="font-style:normal;font-variant:normal;font-weight:bold;font-stretch:normal;font-size:50.55459976px;font-family:Comfortaa;-inkscape-font-specification:'Comfortaa, Bold';font-variant-ligatures:normal;font-variant-caps:normal;font-variant-numeric:normal;font-feature-settings:normal;text-align:start;writing-mode:lr-tb;text-anchor:start;fill:#ffffff;fill-opacity:1;stroke-width:1.26386499"
         id="path1324-6"
         inkscape:connector-curvature="0" />
      <path
         d="m 96.704913,119.53269 q 3.639927,0 6.572097,1.81997 2.98272,1.81996 4.65102,5.05546 1.71886,3.18494 1.71886,7.12819 0,3.94326 -1.81997,7.17876 -1.81996,3.18494 -5.05545,5.05546 -3.184945,1.81996 -7.077649,1.81996 -3.892704,0 -7.077644,-1.81996 -3.134385,-1.87052 -5.004905,-5.05546 -1.819966,-3.2355 -1.819966,-7.17876 v -23.05289 q 0,-1.16276 0.707765,-1.87052 0.758319,-0.70777 1.87052,-0.70777 1.162755,0 1.87052,0.70777 0.707764,0.70776 0.707764,1.87052 v 13.64974 q 1.769411,-2.17385 4.297141,-3.38716 2.52773,-1.21331 5.459897,-1.21331 z m -1.011092,23.50789 q 2.52773,0 4.549919,-1.21331 2.07273,-1.26387 3.23549,-3.43771 1.21331,-2.17385 1.21331,-4.85325 0,-2.67939 -1.21331,-4.80268 -1.16276,-2.17385 -3.23549,-3.38716 -2.022189,-1.26387 -4.549919,-1.26387 -2.52773,0 -4.600469,1.26387 -2.022184,1.21331 -3.184939,3.38716 -1.162756,2.12329 -1.162756,4.80268 0,2.6794 1.162756,4.85325 1.162755,2.17384 3.184939,3.43771 2.072739,1.21331 4.600469,1.21331 z"
         style="font-style:normal;font-variant:normal;font-weight:bold;font-stretch:normal;font-size:50.55459976px;font-family:Comfortaa;-inkscape-font-specification:'Comfortaa, Bold';font-variant-ligatures:normal;font-variant-caps:normal;font-variant-numeric:normal;font-feature-settings:normal;text-align:start;writing-mode:lr-tb;text-anchor:start;fill:#ffffff;fill-opacity:1;stroke-width:1.26386499"
         id="path1326-8"
         inkscape:connector-curvature="0" />
      <path
         d="m 127.39788,147.59049 q -3.43772,0 -6.47099,-1.06164 -3.03328,-1.06165 -4.75213,-2.78051 -0.65721,-0.65721 -0.65721,-1.56719 0,-1.21331 1.01109,-1.97163 0.96054,-0.70776 1.76941,-0.70776 1.01109,0 1.92107,0.90998 0.96054,1.06165 2.88162,1.87052 1.92107,0.75832 4.09492,0.75832 2.88161,0 4.4488,-0.96054 1.61775,-0.96054 1.61775,-2.57828 0,-1.5672 -1.56719,-2.57829 -1.56719,-1.06164 -5.30824,-1.76941 -9.70648,-1.87052 -9.70648,-7.98762 0,-2.47718 1.46609,-4.19604 1.46608,-1.71885 3.84214,-2.57828 2.37607,-0.85943 5.05546,-0.85943 3.28605,0 5.86434,1.06165 2.62884,1.06164 4.14548,2.93216 0.65721,0.80888 0.65721,1.61775 0,0.85943 -0.85943,1.56719 -0.5561,0.40444 -1.41553,0.40444 -1.31442,0 -2.37607,-0.96054 -1.26386,-1.16275 -2.67939,-1.61774 -1.41553,-0.50555 -3.43771,-0.50555 -2.32552,0 -3.84215,0.80887 -1.46609,0.75832 -1.46609,2.17385 0,1.01109 0.50555,1.71886 0.50554,0.65721 1.92107,1.26386 1.41553,0.5561 4.09493,1.1122 5.51045,1.11221 7.7854,3.08383 2.32552,1.97163 2.32552,5.10602 0,2.32551 -1.26387,4.24659 -1.26386,1.87052 -3.74104,2.98272 -2.42662,1.06164 -5.86433,1.06164 z"
         style="font-style:normal;font-variant:normal;font-weight:bold;font-stretch:normal;font-size:50.55459976px;font-family:Comfortaa;-inkscape-font-specification:'Comfortaa, Bold';font-variant-ligatures:normal;font-variant-caps:normal;font-variant-numeric:normal;font-feature-settings:normal;text-align:start;writing-mode:lr-tb;text-anchor:start;fill:#ffffff;fill-opacity:1;stroke-width:1.26386499"
         id="path1328-7"
         inkscape:connector-curvature="0" />
      <path
         d="m 157.32461,147.59049 q -4.04436,0 -7.2293,-1.76941 -3.18494,-1.81996 -4.95435,-5.0049 -1.76942,-3.18494 -1.76942,-7.22931 0,-4.09492 1.76942,-7.27986 1.76941,-3.18494 4.95435,-4.95435 3.18494,-1.81997 7.2293,-1.81997 3.99382,0 7.1282,1.81997 3.18494,1.76941 4.95435,4.95435 1.81997,3.18494 1.81997,7.27986 0,4.04437 -1.76941,7.22931 -1.76941,3.18494 -4.95435,5.0049 -3.13439,1.76941 -7.17876,1.76941 z m 0,-4.54991 q 2.57829,0 4.60047,-1.21331 2.07274,-1.21331 3.18494,-3.3366 1.16276,-2.17385 1.16276,-4.9038 0,-2.72995 -1.16276,-4.9038 -1.1122,-2.17384 -3.18494,-3.38715 -2.02218,-1.21332 -4.60047,-1.21332 -2.57828,0 -4.65102,1.21332 -2.02218,1.21331 -3.18494,3.38715 -1.16275,2.17385 -1.16275,4.9038 0,2.72995 1.16275,4.9038 1.16276,2.12329 3.18494,3.3366 2.07274,1.21331 4.65102,1.21331 z"
         style="font-style:normal;font-variant:normal;font-weight:bold;font-stretch:normal;font-size:50.55459976px;font-family:Comfortaa;-inkscape-font-specification:'Comfortaa, Bold';font-variant-ligatures:normal;font-variant-caps:normal;font-variant-numeric:normal;font-feature-settings:normal;text-align:start;writing-mode:lr-tb;text-anchor:start;fill:#ffffff;fill-opacity:1;stroke-width:1.26386499"
         id="path1330-9"
         inkscape:connector-curvature="0" />
    </g>
  </g>
</svg>
