<?xml version="1.0" encoding="UTF-8" standalone="no"?>
<!-- Created with Inkscape (http://www.inkscape.org/) -->

<svg
   xmlns:dc="http://purl.org/dc/elements/1.1/"
   xmlns:cc="http://creativecommons.org/ns#"
   xmlns:rdf="http://www.w3.org/1999/02/22-rdf-syntax-ns#"
   xmlns:svg="http://www.w3.org/2000/svg"
   xmlns="http://www.w3.org/2000/svg"
   xmlns:sodipodi="http://sodipodi.sourceforge.net/DTD/sodipodi-0.dtd"
   xmlns:inkscape="http://www.inkscape.org/namespaces/inkscape"
   width="73.541908mm"
   height="32.1325mm"
   viewBox="0 0 73.541908 32.1325"
   version="1.1"
   id="svg5175"
   inkscape:version="0.92.3 (2405546, 2018-03-11)"
   sodipodi:docname="logo-bw.svg">
  <defs
     id="defs5169" />
  <sodipodi:namedview
     id="base"
     pagecolor="#ffffff"
     bordercolor="#666666"
     borderopacity="1.0"
     inkscape:pageopacity="0.0"
     inkscape:pageshadow="2"
     inkscape:zoom="4.0721154"
     inkscape:cx="59.978031"
     inkscape:cy="43.060499"
     inkscape:document-units="mm"
     inkscape:current-layer="layer1"
     showgrid="false"
     fit-margin-top="3"
     fit-margin-left="3"
     fit-margin-right="3"
     fit-margin-bottom="3"
     inkscape:window-width="1920"
     inkscape:window-height="1043"
     inkscape:window-x="0"
     inkscape:window-y="0"
     inkscape:window-maximized="1" />
  <metadata
     id="metadata5172">
    <rdf:RDF>
      <cc:Work
         rdf:about="">
        <dc:format>image/svg+xml</dc:format>
        <dc:type
           rdf:resource="http://purl.org/dc/dcmitype/StillImage" />
        <dc:title></dc:title>
      </cc:Work>
    </rdf:RDF>
  </metadata>
  <g
     inkscape:label="Layer 1"
     inkscape:groupmode="layer"
     id="layer1"
     transform="translate(-27.003934,-128.53375)">
    <path
       style="font-style:normal;font-variant:normal;font-weight:bold;font-stretch:normal;font-size:50.55459976px;line-height:1.25;font-family:Comfortaa;-inkscape-font-specification:'Comfortaa, Bold';font-variant-ligatures:normal;font-variant-caps:normal;font-variant-numeric:normal;font-feature-settings:normal;text-align:start;letter-spacing:0px;word-spacing:0px;writing-mode:lr-tb;text-anchor:start;display:inline;fill:#999999;fill-opacity:1;stroke:none;stroke-width:0.89823657;stroke-opacity:0"
       d="m 50.496744,131.53375 c -0.96091,0 -1.76898,0.27404 -2.42414,0.82242 -0.6115,0.54838 -0.91726,1.27312 -0.91726,2.17404 v 6.16034 c -0.62348,-0.65664 -1.34593,-1.2143 -2.16886,-1.67148 -1.48508,-0.8623 -3.17382,-1.29346 -5.0661,-1.29346 -1.91624,0 -3.62889,0.43116 -5.13793,1.29346 -1.50903,0.83836 -2.68261,2.01194 -3.52097,3.52098 -0.83836,1.50904 -1.25755,3.23366 -1.25755,5.17384 0,1.91624 0.41919,3.6289 1.25755,5.13794 0.83836,1.50902 2.01194,2.69458 3.52097,3.55688 1.50904,0.83836 3.22169,1.25754 5.13793,1.25754 1.91624,0 3.61693,-0.41918 5.10202,-1.25754 1.43604,-0.8206 2.56775,-1.93462 3.39643,-3.34088 0.78828,1.15076 1.8038,2.08232 3.04813,2.79336 1.50904,0.83836 3.22169,1.25756 5.13793,1.25756 1.916246,0 3.616946,-0.4192 5.102046,-1.25756 1.04264,-0.5958 1.92492,-1.34624 2.64736,-2.25076 0.75922,1.02788 1.71118,1.86978 2.8572,2.52466 1.50904,0.83834 3.22168,1.25754 5.13792,1.25754 1.91624,0 3.61694,-0.4192 5.10204,-1.25754 1.04464,-0.59694 1.92828,-1.34908 2.65152,-2.25594 0.6787,0.78548 1.48676,1.44626 2.4244,1.98204 1.50904,0.83836 3.22168,1.25756 5.13792,1.25756 1.91624,0 3.61694,-0.4192 5.102,-1.25756 1.50906,-0.8623 2.68264,-2.04784 3.52098,-3.55688 0.83836,-1.50904 1.25756,-3.22168 1.25756,-5.13792 0,-1.9402 -0.43116,-3.66482 -1.29346,-5.17386 -0.83836,-1.50902 -2.01194,-2.68288 -3.52098,-3.52122 -1.48508,-0.86232 -3.17382,-1.29346 -5.0661,-1.29346 -1.91624,0 -3.62888,0.43114 -5.13792,1.29346 -1.05324,0.58512 -1.94282,1.33426 -2.66936,2.24612 -0.68242,-0.78912 -1.4965,-1.4467 -2.44248,-1.97224 -1.4851,-0.86232 -3.17384,-1.29346 -5.06612,-1.29346 -1.91624,0 -3.62888,0.43114 -5.13792,1.29346 -1.05152,0.58418 -1.9396,1.33162 -2.66546,2.24146 -0.7621,-1.0347 -1.71994,-1.87364 -2.87502,-2.51534 -1.4851,-0.86232 -3.17384,-1.29346 -5.066126,-1.29346 -0.97519,0 -1.89728,0.1124 -2.76701,0.33564 v -2.98328 c 0,-0.90092 -0.30578,-1.62566 -0.91726,-2.17404 -0.6115,-0.54838 -1.4193,-0.82242 -2.42388,-0.82242 z"
       id="path851-1-0-0-9"
       inkscape:connector-curvature="0" />
    <g
       aria-label="ebso"
       style="font-style:normal;font-variant:normal;font-weight:normal;font-stretch:normal;font-size:50.55459976px;line-height:1.25;font-family:'Latin Modern Math';-inkscape-font-specification:'Latin Modern Math';letter-spacing:0px;word-spacing:0px;display:inline;fill:#ffffff;fill-opacity:1;stroke:none;stroke-width:1.26386499"
       id="text823-2-0-0"
       transform="matrix(0.50000002,0,0,0.50000002,8.604466,80.57459)">
      <path
         d="m 75.214469,133.13188 q 0,0.96054 -0.657209,1.61775 -0.65721,0.60665 -1.668302,0.60665 H 53.67821 q 0.556101,3.53882 3.18494,5.71267 2.679394,2.17385 6.521543,2.17385 1.516638,0 3.134385,-0.5561 1.668302,-0.5561 2.729949,-1.36498 0.707764,-0.5561 1.668301,-0.5561 0.960538,0 1.516638,0.50555 0.909983,0.75832 0.909983,1.71885 0,0.90999 -0.808873,1.51664 -1.718857,1.36498 -4.297141,2.22441 -2.52773,0.85942 -4.853242,0.85942 -4.145477,0 -7.431526,-1.76941 -3.286049,-1.81996 -5.156569,-5.0049 -1.819966,-3.18494 -1.819966,-7.22931 0,-4.04437 1.718857,-7.22931 1.769411,-3.23549 4.853241,-5.0049 3.134385,-1.81997 7.077644,-1.81997 3.892704,0 6.723762,1.71886 2.831057,1.71885 4.347695,4.80268 1.516638,3.08383 1.516638,7.07765 z m -12.588095,-9.25149 q -3.690486,0 -6.015997,2.02218 -2.274957,2.02218 -2.881612,5.40934 h 16.834681 q -0.454991,-3.38716 -2.52773,-5.40934 -2.072738,-2.02218 -5.409342,-2.02218 z"
         style="font-style:normal;font-variant:normal;font-weight:bold;font-stretch:normal;font-size:50.55459976px;font-family:Comfortaa;-inkscape-font-specification:'Comfortaa, Bold';font-variant-ligatures:normal;font-variant-caps:normal;font-variant-numeric:normal;font-feature-settings:normal;text-align:start;writing-mode:lr-tb;text-anchor:start;fill:#ffffff;fill-opacity:1;stroke-width:1.26386499"
         id="path1324-6"
         inkscape:connector-curvature="0" />
      <path
         d="m 96.704913,119.53269 q 3.639927,0 6.572097,1.81997 2.98272,1.81996 4.65102,5.05546 1.71886,3.18494 1.71886,7.12819 0,3.94326 -1.81997,7.17876 -1.81996,3.18494 -5.05545,5.05546 -3.184945,1.81996 -7.077649,1.81996 -3.892704,0 -7.077644,-1.81996 -3.134385,-1.87052 -5.004905,-5.05546 -1.819966,-3.2355 -1.819966,-7.17876 v -23.05289 q 0,-1.16276 0.707765,-1.87052 0.758319,-0.70777 1.87052,-0.70777 1.162755,0 1.87052,0.70777 0.707764,0.70776 0.707764,1.87052 v 13.64974 q 1.769411,-2.17385 4.297141,-3.38716 2.52773,-1.21331 5.459897,-1.21331 z m -1.011092,23.50789 q 2.52773,0 4.549919,-1.21331 2.07273,-1.26387 3.23549,-3.43771 1.21331,-2.17385 1.21331,-4.85325 0,-2.67939 -1.21331,-4.80268 -1.16276,-2.17385 -3.23549,-3.38716 -2.022189,-1.26387 -4.549919,-1.26387 -2.52773,0 -4.600469,1.26387 -2.022184,1.21331 -3.184939,3.38716 -1.162756,2.12329 -1.162756,4.80268 0,2.6794 1.162756,4.85325 1.162755,2.17384 3.184939,3.43771 2.072739,1.21331 4.600469,1.21331 z"
         style="font-style:normal;font-variant:normal;font-weight:bold;font-stretch:normal;font-size:50.55459976px;font-family:Comfortaa;-inkscape-font-specification:'Comfortaa, Bold';font-variant-ligatures:normal;font-variant-caps:normal;font-variant-numeric:normal;font-feature-settings:normal;text-align:start;writing-mode:lr-tb;text-anchor:start;fill:#ffffff;fill-opacity:1;stroke-width:1.26386499"
         id="path1326-8"
         inkscape:connector-curvature="0" />
      <path
         d="m 127.39788,147.59049 q -3.43772,0 -6.47099,-1.06164 -3.03328,-1.06165 -4.75213,-2.78051 -0.65721,-0.65721 -0.65721,-1.56719 0,-1.21331 1.01109,-1.97163 0.96054,-0.70776 1.76941,-0.70776 1.01109,0 1.92107,0.90998 0.96054,1.06165 2.88162,1.87052 1.92107,0.75832 4.09492,0.75832 2.88161,0 4.4488,-0.96054 1.61775,-0.96054 1.61775,-2.57828 0,-1.5672 -1.56719,-2.57829 -1.56719,-1.06164 -5.30824,-1.76941 -9.70648,-1.87052 -9.70648,-7.98762 0,-2.47718 1.46609,-4.19604 1.46608,-1.71885 3.84214,-2.57828 2.37607,-0.85943 5.05546,-0.85943 3.28605,0 5.86434,1.06165 2.62884,1.06164 4.14548,2.93216 0.65721,0.80888 0.65721,1.61775 0,0.85943 -0.85943,1.56719 -0.5561,0.40444 -1.41553,0.40444 -1.31442,0 -2.37607,-0.96054 -1.26386,-1.16275 -2.67939,-1.61774 -1.41553,-0.50555 -3.43771,-0.50555 -2.32552,0 -3.84215,0.80887 -1.46609,0.75832 -1.46609,2.17385 0,1.01109 0.50555,1.71886 0.50554,0.65721 1.92107,1.26386 1.41553,0.5561 4.09493,1.1122 5.51045,1.11221 7.7854,3.08383 2.32552,1.97163 2.32552,5.10602 0,2.32551 -1.26387,4.24659 -1.26386,1.87052 -3.74104,2.98272 -2.42662,1.06164 -5.86433,1.06164 z"
         style="font-style:normal;font-variant:normal;font-weight:bold;font-stretch:normal;font-size:50.55459976px;font-family:Comfortaa;-inkscape-font-specification:'Comfortaa, Bold';font-variant-ligatures:normal;font-variant-caps:normal;font-variant-numeric:normal;font-feature-settings:normal;text-align:start;writing-mode:lr-tb;text-anchor:start;fill:#ffffff;fill-opacity:1;stroke-width:1.26386499"
         id="path1328-7"
         inkscape:connector-curvature="0" />
      <path
         d="m 157.32461,147.59049 q -4.04436,0 -7.2293,-1.76941 -3.18494,-1.81996 -4.95435,-5.0049 -1.76942,-3.18494 -1.76942,-7.22931 0,-4.09492 1.76942,-7.27986 1.76941,-3.18494 4.95435,-4.95435 3.18494,-1.81997 7.2293,-1.81997 3.99382,0 7.1282,1.81997 3.18494,1.76941 4.95435,4.95435 1.81997,3.18494 1.81997,7.27986 0,4.04437 -1.76941,7.22931 -1.76941,3.18494 -4.95435,5.0049 -3.13439,1.76941 -7.17876,1.76941 z m 0,-4.54991 q 2.57829,0 4.60047,-1.21331 2.07274,-1.21331 3.18494,-3.3366 1.16276,-2.17385 1.16276,-4.9038 0,-2.72995 -1.16276,-4.9038 -1.1122,-2.17384 -3.18494,-3.38715 -2.02218,-1.21332 -4.60047,-1.21332 -2.57828,0 -4.65102,1.21332 -2.02218,1.21331 -3.18494,3.38715 -1.16275,2.17385 -1.16275,4.9038 0,2.72995 1.16275,4.9038 1.16276,2.12329 3.18494,3.3366 2.07274,1.21331 4.65102,1.21331 z"
         style="font-style:normal;font-variant:normal;font-weight:bold;font-stretch:normal;font-size:50.55459976px;font-family:Comfortaa;-inkscape-font-specification:'Comfortaa, Bold';font-variant-ligatures:normal;font-variant-caps:normal;font-variant-numeric:normal;font-feature-settings:normal;text-align:start;writing-mode:lr-tb;text-anchor:start;fill:#ffffff;fill-opacity:1;stroke-width:1.26386499"
         id="path1330-9"
         inkscape:connector-curvature="0" />
    </g>
  </g>
</svg>
